<svg width="400" height="400" viewBox="0 0 400 400" xmlns="http://www.w3.org/2000/svg">
  <!-- Ground -->
  <rect x="0" y="320" width="400" height="80" fill="#FEF3C7" opacity="0.3"/>
  
  <!-- Main Tower -->
  <rect x="140" y="100" width="120" height="220" fill="#FBCB6A" rx="4"/>
  
  <!-- Tower Windows - Multiple Rows -->
  <!-- Row 1 -->
  <rect x="155" y="120" width="20" height="25" fill="#FFFBEB" rx="2"/>
  <rect x="180" y="120" width="20" height="25" fill="#FFFBEB" rx="2"/>
  <rect x="205" y="120" width="20" height="25" fill="#FFFBEB" rx="2"/>
  <rect x="230" y="120" width="20" height="25" fill="#FFFBEB" rx="2"/>
  
  <!-- Row 2 -->
  <rect x="155" y="155" width="20" height="25" fill="#FFFBEB" rx="2"/>
  <rect x="180" y="155" width="20" height="25" fill="#FFFBEB" rx="2"/>
  <rect x="205" y="155" width="20" height="25" fill="#FFFBEB" rx="2"/>
  <rect x="230" y="155" width="20" height="25" fill="#FFFBEB" rx="2"/>
  
  <!-- Row 3 -->
  <rect x="155" y="190" width="20" height="25" fill="#FFFBEB" rx="2"/>
  <rect x="180" y="190" width="20" height="25" fill="#FFFBEB" rx="2"/>
  <rect x="205" y="190" width="20" height="25" fill="#FFFBEB" rx="2"/>
  <rect x="230" y="190" width="20" height="25" fill="#FFFBEB" rx="2"/>
  
  <!-- Row 4 -->
  <rect x="155" y="225" width="20" height="25" fill="#FFFBEB" rx="2"/>
  <rect x="180" y="225" width="20" height="25" fill="#FFFBEB" rx="2"/>
  <rect x="205" y="225" width="20" height="25" fill="#FFFBEB" rx="2"/>
  <rect x="230" y="225" width="20" height="25" fill="#FFFBEB" rx="2"/>
  
  <!-- Row 5 -->
  <rect x="155" y="260" width="20" height="25" fill="#FFFBEB" rx="2"/>
  <rect x="180" y="260" width="20" height="25" fill="#FFFBEB" rx="2"/>
  <rect x="205" y="260" width="20" height="25" fill="#FFFBEB" rx="2"/>
  <rect x="230" y="260" width="20" height="25" fill="#FFFBEB" rx="2"/>
  
  <!-- Entrance -->
  <rect x="170" y="290" width="60" height="30" fill="#F59E0B" rx="3"/>
  <rect x="180" y="295" width="40" height="25" fill="#FEF3C7" rx="2"/>
  
  <!-- Left Building -->
  <rect x="70" y="180" width="70" height="140" fill="#FCD34D" rx="3"/>
  <rect x="85" y="200" width="15" height="20" fill="#FFFBEB" rx="1"/>
  <rect x="105" y="200" width="15" height="20" fill="#FFFBEB" rx="1"/>
  <rect x="85" y="230" width="15" height="20" fill="#FFFBEB" rx="1"/>
  <rect x="105" y="230" width="15" height="20" fill="#FFFBEB" rx="1"/>
  <rect x="85" y="260" width="15" height="20" fill="#FFFBEB" rx="1"/>
  <rect x="105" y="260" width="15" height="20" fill="#FFFBEB" rx="1"/>
  <rect x="85" y="290" width="35" height="30" fill="#F59E0B" rx="2"/>
  
  <!-- Right Building -->
  <rect x="260" y="180" width="70" height="140" fill="#FCD34D" rx="3"/>
  <rect x="275" y="200" width="15" height="20" fill="#FFFBEB" rx="1"/>
  <rect x="295" y="200" width="15" height="20" fill="#FFFBEB" rx="1"/>
  <rect x="275" y="230" width="15" height="20" fill="#FFFBEB" rx="1"/>
  <rect x="295" y="230" width="15" height="20" fill="#FFFBEB" rx="1"/>
  <rect x="275" y="260" width="15" height="20" fill="#FFFBEB" rx="1"/>
  <rect x="295" y="260" width="15" height="20" fill="#FFFBEB" rx="1"/>
  <rect x="280" y="290" width="35" height="30" fill="#F59E0B" rx="2"/>
  
  <!-- Helipad on Top -->
  <circle cx="200" cy="90" r="15" fill="#F59E0B" opacity="0.3"/>
  <circle cx="200" cy="90" r="10" fill="none" stroke="#FFFFFF" stroke-width="2"/>
  <text x="200" y="95" font-family="Arial, sans-serif" font-size="14" font-weight="bold" fill="#FFFFFF" text-anchor="middle">H</text>
  
  <!-- Company Logo/Sign -->
  <rect x="160" y="105" width="80" height="10" fill="#F59E0B" rx="1"/>
  <text x="200" y="113" font-family="Arial, sans-serif" font-size="8" font-weight="bold" fill="#FFFFFF" text-anchor="middle">COMPANY</text>
  
  <!-- Pathway -->
  <rect x="170" y="320" width="60" height="80" fill="#FDE68A" opacity="0.5"/>
  
  <!-- Decorative Elements -->
  <!-- Modern Sculptures/Plants -->
  <rect x="40" y="300" width="15" height="20" fill="#10B981" rx="2"/>
  <rect x="345" y="300" width="15" height="20" fill="#10B981" rx="2"/>
  
  <!-- Street Lamps -->
  <line x1="120" y1="320" x2="120" y2="280" stroke="#D97706" stroke-width="3"/>
  <circle cx="120" cy="275" r="8" fill="#FBCB6A" opacity="0.8"/>
  
  <line x1="280" y1="320" x2="280" y2="280" stroke="#D97706" stroke-width="3"/>
  <circle cx="280" cy="275" r="8" fill="#FBCB6A" opacity="0.8"/>
  
  <!-- Modern Design Elements -->
  <rect x="140" y="100" width="5" height="220" fill="#F59E0B"/>
  <rect x="255" y="100" width="5" height="220" fill="#F59E0B"/>
  
  <!-- Antenna -->
  <line x1="200" y1="100" x2="200" y2="70" stroke="#F59E0B" stroke-width="2"/>
  <circle cx="200" cy="70" r="3" fill="#FBCB6A"/>
  <line x1="195" y1="75" x2="205" y2="75" stroke="#F59E0B" stroke-width="1"/>
  <line x1="195" y1="80" x2="205" y2="80" stroke="#F59E0B" stroke-width="1"/>
</svg>
