<svg width="600" height="500" viewBox="0 0 600 500" fill="none" xmlns="http://www.w3.org/2000/svg">
  <!-- Background Elements -->
  <circle cx="500" cy="100" r="80" fill="#FFF8E7" opacity="0.5"/>
  <circle cx="100" cy="400" r="60" fill="#FBCB6A" opacity="0.3"/>
  
  <!-- Main Platform/Dashboard -->
  <rect x="150" y="150" width="300" height="200" rx="20" fill="#FFFFFF" stroke="#FBCB6A" stroke-width="3"/>
  
  <!-- Header Bar -->
  <rect x="150" y="150" width="300" height="40" rx="20" fill="#FBCB6A"/>
  <text x="180" y="177" font-family="Arial, sans-serif" font-size="18" font-weight="bold" fill="#1C1C1C">MeetHire</text>
  
  <!-- Profile Cards Inside Dashboard -->
  <rect x="170" y="210" width="120" height="120" rx="12" fill="#FFF8E7" stroke="#F4A940" stroke-width="2"/>
  <circle cx="230" cy="250" r="20" fill="#FBCB6A"/>
  <text x="215" y="257" font-size="24" fill="#1C1C1C">🎓</text>
  <text x="185" y="290" font-family="Arial, sans-serif" font-size="12" font-weight="600" fill="#1C1C1C">College TPO</text>
  <rect x="180" y="300" width="100" height="4" rx="2" fill="#FBCB6A" opacity="0.5"/>
  <rect x="180" y="310" width="80" height="4" rx="2" fill="#FBCB6A" opacity="0.3"/>
  
  <rect x="310" y="210" width="120" height="120" rx="12" fill="#FFF8E7" stroke="#F4A940" stroke-width="2"/>
  <circle cx="370" cy="250" r="20" fill="#FBCB6A"/>
  <text x="355" y="257" font-size="24" fill="#1C1C1C">💼</text>
  <text x="330" y="290" font-family="Arial, sans-serif" font-size="12" font-weight="600" fill="#1C1C1C">Company HR</text>
  <rect x="320" y="300" width="100" height="4" rx="2" fill="#FBCB6A" opacity="0.5"/>
  <rect x="320" y="310" width="80" height="4" rx="2" fill="#FBCB6A" opacity="0.3"/>
  
  <!-- Connection Arrow -->
  <path d="M 290 270 L 310 270" stroke="#F4A940" stroke-width="3" stroke-linecap="round"/>
  <path d="M 305 265 L 310 270 L 305 275" stroke="#F4A940" stroke-width="3" stroke-linecap="round" fill="none"/>
  <path d="M 310 270 L 290 270" stroke="#F4A940" stroke-width="3" stroke-linecap="round"/>
  <path d="M 295 265 L 290 270 L 295 275" stroke="#F4A940" stroke-width="3" stroke-linecap="round" fill="none"/>
  
  <!-- Floating Icons -->
  <g opacity="0.8">
    <circle cx="80" cy="180" r="30" fill="#FFFFFF" stroke="#FBCB6A" stroke-width="2"/>
    <text x="62" y="193" font-size="28">✓</text>
  </g>
  
  <g opacity="0.8">
    <circle cx="520" cy="280" r="30" fill="#FFFFFF" stroke="#FBCB6A" stroke-width="2"/>
    <text x="502" y="293" font-size="28">📋</text>
  </g>
  
  <g opacity="0.8">
    <circle cx="100" cy="320" r="25" fill="#FFFFFF" stroke="#F4A940" stroke-width="2"/>
    <text x="85" y="332" font-size="24">🔄</text>
  </g>
  
  <g opacity="0.8">
    <circle cx="500" cy="200" r="25" fill="#FFFFFF" stroke="#F4A940" stroke-width="2"/>
    <text x="485" y="212" font-size="24">📈</text>
  </g>
  
  <!-- Bottom Decorative Elements -->
  <rect x="200" y="380" width="200" height="8" rx="4" fill="#FBCB6A" opacity="0.4"/>
  <rect x="220" y="400" width="160" height="8" rx="4" fill="#F4A940" opacity="0.4"/>
</svg>
