<svg width="300" height="300" viewBox="0 0 300 300" fill="none" xmlns="http://www.w3.org/2000/svg">
  <!-- Document Stack -->
  <rect x="80" y="100" width="140" height="180" rx="12" fill="#FFFFFF" stroke="#E8E8E8" stroke-width="2" opacity="0.5" transform="rotate(-5 150 190)"/>
  <rect x="80" y="100" width="140" height="180" rx="12" fill="#FFFFFF" stroke="#F4A940" stroke-width="2" opacity="0.7" transform="rotate(-2 150 190)"/>
  <rect x="80" y="100" width="140" height="180" rx="12" fill="#FFF8E7" stroke="#FBCB6A" stroke-width="3"/>
  
  <!-- Document Header -->
  <rect x="80" y="100" width="140" height="40" rx="12" fill="#FBCB6A"/>
  <text x="110" y="125" font-family="Arial, sans-serif" font-size="14" font-weight="bold" fill="#1C1C1C">Job Proposal</text>
  
  <!-- Document Content Lines -->
  <rect x="95" y="160" width="110" height="6" rx="3" fill="#FBCB6A" opacity="0.6"/>
  <rect x="95" y="175" width="90" height="6" rx="3" fill="#F4A940" opacity="0.5"/>
  <rect x="95" y="190" width="100" height="6" rx="3" fill="#FBCB6A" opacity="0.4"/>
  
  <!-- Company Logo Placeholder -->
  <circle cx="150" cy="220" r="20" fill="#FFFFFF" stroke="#FBCB6A" stroke-width="2"/>
  <text x="140" y="230" font-size="20">🏢</text>
  
  <!-- Details -->
  <rect x="95" y="250" width="50" height="5" rx="2.5" fill="#F4A940" opacity="0.5"/>
  <rect x="150" y="250" width="55" height="5" rx="2.5" fill="#FBCB6A" opacity="0.5"/>
  
  <!-- Approval Stamp -->
  <circle cx="200" cy="240" r="25" fill="none" stroke="#6BBF59" stroke-width="3" opacity="0.8"/>
  <text x="182" y="248" font-family="Arial, sans-serif" font-size="12" font-weight="bold" fill="#6BBF59">✓</text>
  
  <!-- Floating Icons -->
  <circle cx="60" cy="120" r="18" fill="#FFFFFF" stroke="#FBCB6A" stroke-width="2"/>
  <text x="49" y="129" font-size="18">📧</text>
  
  <circle cx="240" cy="160" r="18" fill="#FFFFFF" stroke="#F4A940" stroke-width="2"/>
  <text x="229" y="169" font-size="18">🔔</text>
</svg>
